<mxfile host="app.diagrams.net" modified="2022-05-12T03:25:40.559Z" agent="5.0 (Windows NT 10.0; Win64; x64) AppleWebKit/537.36 (KHTML, like Gecko) Chrome/101.0.4951.54 Safari/537.36" etag="1GDvr8hiqfdbniclNI2a" version="17.1.3" type="github">
  <diagram id="91JcnNk7F4j67cdfMRBW" name="Page-1">
    <mxGraphModel dx="1038" dy="581" grid="1" gridSize="10" guides="1" tooltips="1" connect="1" arrows="1" fold="1" page="1" pageScale="1" pageWidth="827" pageHeight="1169" math="0" shadow="0">
      <root>
        <mxCell id="0" />
        <mxCell id="1" parent="0" />
        <mxCell id="7amWvDYA09Yku5p8_MDS-1" value="" style="rounded=0;whiteSpace=wrap;html=1;" vertex="1" parent="1">
          <mxGeometry x="40" y="40" width="730" height="600" as="geometry" />
        </mxCell>
        <mxCell id="7amWvDYA09Yku5p8_MDS-2" value="" style="rounded=0;whiteSpace=wrap;html=1;" vertex="1" parent="1">
          <mxGeometry x="40" y="40" width="180" height="600" as="geometry" />
        </mxCell>
        <mxCell id="7amWvDYA09Yku5p8_MDS-3" value="" style="rounded=1;arcSize=36;whiteSpace=wrap;html=1;align=center;fontFamily=Helvetica;fontSize=10;fontColor=default;strokeColor=default;fillColor=default;" vertex="1" parent="1">
          <mxGeometry x="48.589999999999996" y="377.5" width="165" height="30" as="geometry" />
        </mxCell>
        <mxCell id="7amWvDYA09Yku5p8_MDS-4" value="" style="rounded=0;whiteSpace=wrap;html=1;fontFamily=Helvetica;fontSize=10;fontColor=default;strokeColor=default;strokeWidth=1;fillColor=default;gradientColor=none;" vertex="1" parent="1">
          <mxGeometry x="230" y="67.5" width="530" height="212.5" as="geometry" />
        </mxCell>
        <mxCell id="7amWvDYA09Yku5p8_MDS-5" value="" style="rounded=1;arcSize=36;whiteSpace=wrap;html=1;align=center;fontFamily=Helvetica;fontSize=10;fontColor=default;strokeColor=default;fillColor=default;" vertex="1" parent="1">
          <mxGeometry x="45" y="160" width="165" height="30" as="geometry" />
        </mxCell>
        <mxCell id="7amWvDYA09Yku5p8_MDS-6" value="" style="rounded=1;arcSize=36;whiteSpace=wrap;html=1;align=center;fontFamily=Helvetica;fontSize=10;fontColor=default;strokeColor=default;fillColor=default;" vertex="1" parent="1">
          <mxGeometry x="48.589999999999996" y="340" width="165" height="30" as="geometry" />
        </mxCell>
        <mxCell id="7amWvDYA09Yku5p8_MDS-7" value="" style="rounded=1;arcSize=36;whiteSpace=wrap;html=1;align=center;fontFamily=Helvetica;fontSize=10;fontColor=default;strokeColor=default;fillColor=default;" vertex="1" parent="1">
          <mxGeometry x="45" y="100" width="165" height="30" as="geometry" />
        </mxCell>
        <mxCell id="7amWvDYA09Yku5p8_MDS-8" value="Nhóm 5" style="text;html=1;strokeColor=none;fillColor=none;align=center;verticalAlign=middle;whiteSpace=wrap;rounded=0;fontSize=12;" vertex="1" parent="1">
          <mxGeometry x="110" y="57.5" width="60" height="30" as="geometry" />
        </mxCell>
        <mxCell id="7amWvDYA09Yku5p8_MDS-9" value="img" style="rounded=0;whiteSpace=wrap;html=1;" vertex="1" parent="1">
          <mxGeometry x="70" y="60" width="30" height="25" as="geometry" />
        </mxCell>
        <mxCell id="7amWvDYA09Yku5p8_MDS-10" value="" style="rounded=1;arcSize=36;whiteSpace=wrap;html=1;align=center;fontFamily=Helvetica;fontSize=10;fontColor=default;strokeColor=default;fillColor=default;" vertex="1" parent="1">
          <mxGeometry x="46.4" y="302" width="165" height="30" as="geometry" />
        </mxCell>
        <mxCell id="7amWvDYA09Yku5p8_MDS-11" value="icon" style="rounded=0;whiteSpace=wrap;html=1;" vertex="1" parent="1">
          <mxGeometry x="50" y="107.5" width="30" height="15" as="geometry" />
        </mxCell>
        <mxCell id="7amWvDYA09Yku5p8_MDS-12" value="" style="rounded=1;arcSize=36;whiteSpace=wrap;html=1;align=center;fontFamily=Helvetica;fontSize=10;fontColor=default;strokeColor=default;fillColor=default;" vertex="1" parent="1">
          <mxGeometry x="45" y="195" width="165" height="30" as="geometry" />
        </mxCell>
        <mxCell id="7amWvDYA09Yku5p8_MDS-13" value="" style="line;strokeWidth=2;html=1;rounded=0;fontFamily=Helvetica;fontSize=12;fontColor=default;fillColor=default;" vertex="1" parent="1">
          <mxGeometry x="50" y="90" width="160" height="10" as="geometry" />
        </mxCell>
        <mxCell id="7amWvDYA09Yku5p8_MDS-14" value="Trang chủ admin" style="text;html=1;strokeColor=none;fillColor=none;align=center;verticalAlign=middle;whiteSpace=wrap;rounded=0;fontSize=10;" vertex="1" parent="1">
          <mxGeometry x="90" y="107.5" width="80" height="15" as="geometry" />
        </mxCell>
        <mxCell id="7amWvDYA09Yku5p8_MDS-15" value="" style="line;strokeWidth=2;html=1;rounded=0;fontFamily=Helvetica;fontSize=12;fontColor=default;fillColor=default;" vertex="1" parent="1">
          <mxGeometry x="50" y="130" width="160" height="10" as="geometry" />
        </mxCell>
        <mxCell id="7amWvDYA09Yku5p8_MDS-16" value="Loại danh mục" style="text;html=1;strokeColor=none;fillColor=none;align=center;verticalAlign=middle;whiteSpace=wrap;rounded=0;fontSize=10;" vertex="1" parent="1">
          <mxGeometry x="90" y="170" width="70" height="10" as="geometry" />
        </mxCell>
        <mxCell id="7amWvDYA09Yku5p8_MDS-17" value="Sản Phẩm" style="text;html=1;strokeColor=none;fillColor=none;align=center;verticalAlign=middle;whiteSpace=wrap;rounded=0;fontSize=10;" vertex="1" parent="1">
          <mxGeometry x="90" y="202.5" width="50" height="15" as="geometry" />
        </mxCell>
        <mxCell id="7amWvDYA09Yku5p8_MDS-18" value="Khách hàng - đối tác" style="text;html=1;strokeColor=none;fillColor=none;align=center;verticalAlign=middle;whiteSpace=wrap;rounded=0;fontSize=10;" vertex="1" parent="1">
          <mxGeometry x="91.4" y="309.5" width="100" height="15" as="geometry" />
        </mxCell>
        <mxCell id="7amWvDYA09Yku5p8_MDS-19" value="" style="line;strokeWidth=2;html=1;rounded=0;fontFamily=Helvetica;fontSize=12;fontColor=default;fillColor=default;" vertex="1" parent="1">
          <mxGeometry x="51.089999999999996" y="272" width="160" height="10" as="geometry" />
        </mxCell>
        <mxCell id="7amWvDYA09Yku5p8_MDS-20" value="Quản trị danh mục" style="text;html=1;strokeColor=none;fillColor=none;align=center;verticalAlign=middle;whiteSpace=wrap;rounded=0;fontSize=10;" vertex="1" parent="1">
          <mxGeometry x="45" y="140" width="95" height="20" as="geometry" />
        </mxCell>
        <mxCell id="7amWvDYA09Yku5p8_MDS-21" value="Thống kê" style="text;html=1;strokeColor=none;fillColor=none;align=center;verticalAlign=middle;whiteSpace=wrap;rounded=0;fontSize=10;" vertex="1" parent="1">
          <mxGeometry x="51.4" y="282" width="50" height="20" as="geometry" />
        </mxCell>
        <mxCell id="7amWvDYA09Yku5p8_MDS-22" value="Doanh Thu" style="text;html=1;strokeColor=none;fillColor=none;align=center;verticalAlign=middle;whiteSpace=wrap;rounded=0;fontSize=10;" vertex="1" parent="1">
          <mxGeometry x="93.59" y="347.5" width="60" height="15" as="geometry" />
        </mxCell>
        <mxCell id="7amWvDYA09Yku5p8_MDS-23" value="Tài Khoản" style="text;html=1;strokeColor=none;fillColor=none;align=center;verticalAlign=middle;whiteSpace=wrap;rounded=0;fontSize=10;" vertex="1" parent="1">
          <mxGeometry x="93.59" y="385" width="60" height="15" as="geometry" />
        </mxCell>
        <mxCell id="7amWvDYA09Yku5p8_MDS-24" value="icon" style="rounded=0;whiteSpace=wrap;html=1;" vertex="1" parent="1">
          <mxGeometry x="50" y="167.5" width="30" height="15" as="geometry" />
        </mxCell>
        <mxCell id="7amWvDYA09Yku5p8_MDS-25" value="icon" style="rounded=0;whiteSpace=wrap;html=1;" vertex="1" parent="1">
          <mxGeometry x="50" y="202.5" width="30" height="15" as="geometry" />
        </mxCell>
        <mxCell id="7amWvDYA09Yku5p8_MDS-26" value="icon" style="rounded=0;whiteSpace=wrap;html=1;" vertex="1" parent="1">
          <mxGeometry x="51.4" y="309.5" width="30" height="15" as="geometry" />
        </mxCell>
        <mxCell id="7amWvDYA09Yku5p8_MDS-27" value="icon" style="rounded=0;whiteSpace=wrap;html=1;" vertex="1" parent="1">
          <mxGeometry x="53.589999999999996" y="347.5" width="30" height="15" as="geometry" />
        </mxCell>
        <mxCell id="7amWvDYA09Yku5p8_MDS-28" value="icon" style="rounded=0;whiteSpace=wrap;html=1;" vertex="1" parent="1">
          <mxGeometry x="53.589999999999996" y="385" width="30" height="15" as="geometry" />
        </mxCell>
        <mxCell id="7amWvDYA09Yku5p8_MDS-29" value="Sản phẩm" style="text;html=1;strokeColor=none;fillColor=none;align=center;verticalAlign=middle;whiteSpace=wrap;rounded=0;fontSize=12;" vertex="1" parent="1">
          <mxGeometry x="220" y="37.5" width="60" height="30" as="geometry" />
        </mxCell>
        <mxCell id="7amWvDYA09Yku5p8_MDS-30" value="Danh sách sản phẩm" style="text;html=1;strokeColor=none;fillColor=none;align=center;verticalAlign=middle;whiteSpace=wrap;rounded=0;fontFamily=Helvetica;fontSize=10;fontColor=default;" vertex="1" parent="1">
          <mxGeometry x="240" y="72.5" width="100" height="17.5" as="geometry" />
        </mxCell>
        <mxCell id="7amWvDYA09Yku5p8_MDS-32" value="" style="rounded=1;arcSize=8;whiteSpace=wrap;html=1;align=center;fontFamily=Helvetica;fontSize=10;fontColor=default;strokeColor=default;fillColor=default;" vertex="1" parent="1">
          <mxGeometry x="47.19" y="225" width="160.62" height="40" as="geometry" />
        </mxCell>
        <mxCell id="7amWvDYA09Yku5p8_MDS-33" value="Sản phẩm" style="text;html=1;strokeColor=none;fillColor=none;align=center;verticalAlign=middle;whiteSpace=wrap;rounded=0;fontFamily=Helvetica;fontSize=10;fontColor=default;textOpacity=90;spacing=2;spacingBottom=14;" vertex="1" parent="1">
          <mxGeometry x="56.089999999999996" y="237.5" width="57.81" height="10" as="geometry" />
        </mxCell>
        <mxCell id="7amWvDYA09Yku5p8_MDS-34" value="Danh sách sản phẩm" style="text;html=1;strokeColor=none;fillColor=none;align=center;verticalAlign=middle;whiteSpace=wrap;rounded=0;fontFamily=Helvetica;fontSize=10;fontColor=default;" vertex="1" parent="1">
          <mxGeometry x="68.6" y="247.5" width="105.93" height="10" as="geometry" />
        </mxCell>
        <mxCell id="7amWvDYA09Yku5p8_MDS-35" value="" style="shape=table;html=1;whiteSpace=wrap;startSize=0;container=1;collapsible=0;childLayout=tableLayout;rounded=0;fontFamily=Helvetica;fontSize=7;fontColor=default;strokeColor=default;strokeWidth=1;fillColor=default;gradientColor=none;direction=east;flipV=1;" vertex="1" parent="1">
          <mxGeometry x="240" y="103.75" width="510" height="22.5" as="geometry" />
        </mxCell>
        <mxCell id="7amWvDYA09Yku5p8_MDS-36" value="" style="shape=tableRow;horizontal=0;startSize=0;swimlaneHead=0;swimlaneBody=0;top=0;left=0;bottom=0;right=0;collapsible=0;dropTarget=0;fillColor=none;points=[[0,0.5],[1,0.5]];portConstraint=eastwest;rounded=0;fontFamily=Helvetica;fontSize=8;fontColor=default;strokeColor=default;strokeWidth=1;html=1;" vertex="1" parent="7amWvDYA09Yku5p8_MDS-35">
          <mxGeometry width="510" height="23" as="geometry" />
        </mxCell>
        <mxCell id="7amWvDYA09Yku5p8_MDS-37" value="&lt;font style=&quot;font-size: 8px&quot;&gt;id sản phẩm&lt;/font&gt;" style="shape=partialRectangle;html=1;whiteSpace=wrap;connectable=0;fillColor=none;top=0;left=0;bottom=0;right=0;overflow=hidden;rounded=0;fontFamily=Helvetica;fontSize=10;fontColor=default;strokeColor=default;strokeWidth=1;" vertex="1" parent="7amWvDYA09Yku5p8_MDS-36">
          <mxGeometry width="56" height="23" as="geometry">
            <mxRectangle width="56" height="23" as="alternateBounds" />
          </mxGeometry>
        </mxCell>
        <mxCell id="7amWvDYA09Yku5p8_MDS-38" value="&lt;font style=&quot;font-size: 8px&quot;&gt;Tên sản phẩm&lt;/font&gt;" style="shape=partialRectangle;html=1;whiteSpace=wrap;connectable=0;fillColor=none;top=0;left=0;bottom=0;right=0;overflow=hidden;rounded=0;fontFamily=Helvetica;fontSize=10;fontColor=default;strokeColor=default;strokeWidth=1;" vertex="1" parent="7amWvDYA09Yku5p8_MDS-36">
          <mxGeometry x="56" width="65" height="23" as="geometry">
            <mxRectangle width="65" height="23" as="alternateBounds" />
          </mxGeometry>
        </mxCell>
        <mxCell id="7amWvDYA09Yku5p8_MDS-55" value="&lt;font style=&quot;font-size: 8px&quot;&gt;trạng thái&lt;/font&gt;" style="shape=partialRectangle;html=1;whiteSpace=wrap;connectable=0;fillColor=none;top=0;left=0;bottom=0;right=0;overflow=hidden;rounded=0;fontFamily=Helvetica;fontSize=10;fontColor=default;strokeColor=default;strokeWidth=1;" vertex="1" parent="7amWvDYA09Yku5p8_MDS-36">
          <mxGeometry x="121" width="65" height="23" as="geometry">
            <mxRectangle width="65" height="23" as="alternateBounds" />
          </mxGeometry>
        </mxCell>
        <mxCell id="7amWvDYA09Yku5p8_MDS-56" value="&lt;font style=&quot;font-size: 8px&quot;&gt;Giá sản phẩm&lt;/font&gt;" style="shape=partialRectangle;html=1;whiteSpace=wrap;connectable=0;fillColor=none;top=0;left=0;bottom=0;right=0;overflow=hidden;rounded=0;fontFamily=Helvetica;fontSize=10;fontColor=default;strokeColor=default;strokeWidth=1;" vertex="1" parent="7amWvDYA09Yku5p8_MDS-36">
          <mxGeometry x="186" width="74" height="23" as="geometry">
            <mxRectangle width="74" height="23" as="alternateBounds" />
          </mxGeometry>
        </mxCell>
        <mxCell id="7amWvDYA09Yku5p8_MDS-57" value="&lt;font style=&quot;font-size: 8px&quot;&gt;Số lượng tồn&lt;/font&gt;" style="shape=partialRectangle;html=1;whiteSpace=wrap;connectable=0;fillColor=none;top=0;left=0;bottom=0;right=0;overflow=hidden;rounded=0;fontFamily=Helvetica;fontSize=10;fontColor=default;strokeColor=default;strokeWidth=1;" vertex="1" parent="7amWvDYA09Yku5p8_MDS-36">
          <mxGeometry x="260" width="70" height="23" as="geometry">
            <mxRectangle width="70" height="23" as="alternateBounds" />
          </mxGeometry>
        </mxCell>
        <mxCell id="7amWvDYA09Yku5p8_MDS-58" value="&lt;font style=&quot;font-size: 8px&quot;&gt;Size&lt;/font&gt;" style="shape=partialRectangle;html=1;whiteSpace=wrap;connectable=0;fillColor=none;top=0;left=0;bottom=0;right=0;overflow=hidden;rounded=0;fontFamily=Helvetica;fontSize=10;fontColor=default;strokeColor=default;strokeWidth=1;" vertex="1" parent="7amWvDYA09Yku5p8_MDS-36">
          <mxGeometry x="330" width="50" height="23" as="geometry">
            <mxRectangle width="50" height="23" as="alternateBounds" />
          </mxGeometry>
        </mxCell>
        <mxCell id="7amWvDYA09Yku5p8_MDS-59" value="&lt;font style=&quot;font-size: 8px&quot;&gt;Màu&lt;/font&gt;" style="shape=partialRectangle;html=1;whiteSpace=wrap;connectable=0;fillColor=none;top=0;left=0;bottom=0;right=0;overflow=hidden;rounded=0;fontFamily=Helvetica;fontSize=10;fontColor=default;strokeColor=default;strokeWidth=1;" vertex="1" parent="7amWvDYA09Yku5p8_MDS-36">
          <mxGeometry x="380" width="65" height="23" as="geometry">
            <mxRectangle width="65" height="23" as="alternateBounds" />
          </mxGeometry>
        </mxCell>
        <mxCell id="7amWvDYA09Yku5p8_MDS-60" value="&lt;font style=&quot;font-size: 8px&quot;&gt;Ảnh&lt;/font&gt;" style="shape=partialRectangle;html=1;whiteSpace=wrap;connectable=0;fillColor=none;top=0;left=0;bottom=0;right=0;overflow=hidden;rounded=0;fontFamily=Helvetica;fontSize=10;fontColor=default;strokeColor=default;strokeWidth=1;" vertex="1" parent="7amWvDYA09Yku5p8_MDS-36">
          <mxGeometry x="445" width="65" height="23" as="geometry">
            <mxRectangle width="65" height="23" as="alternateBounds" />
          </mxGeometry>
        </mxCell>
        <mxCell id="7amWvDYA09Yku5p8_MDS-40" value="" style="line;strokeWidth=2;html=1;rounded=0;fontFamily=Helvetica;fontSize=12;fontColor=default;fillColor=default;" vertex="1" parent="1">
          <mxGeometry x="230" y="87.5" width="530" height="10" as="geometry" />
        </mxCell>
        <mxCell id="7amWvDYA09Yku5p8_MDS-41" value="&lt;font style=&quot;font-size: 12px&quot;&gt;ListView&lt;/font&gt;" style="rounded=0;whiteSpace=wrap;html=1;fontFamily=Helvetica;fontSize=8;fontColor=default;strokeColor=default;strokeWidth=1;fillColor=default;gradientColor=none;" vertex="1" parent="1">
          <mxGeometry x="240" y="126.25" width="510" height="143.75" as="geometry" />
        </mxCell>
        <mxCell id="7amWvDYA09Yku5p8_MDS-42" value="&amp;gt;" style="rounded=0;whiteSpace=wrap;html=1;fontFamily=Helvetica;fontSize=10;fontColor=default;strokeColor=default;fillColor=default;strokeWidth=1;gradientColor=none;textOpacity=90;rotation=90;" vertex="1" parent="1">
          <mxGeometry x="191.4" y="205" width="10" height="10" as="geometry" />
        </mxCell>
        <mxCell id="7amWvDYA09Yku5p8_MDS-43" value="&amp;gt;" style="rounded=0;whiteSpace=wrap;html=1;fontFamily=Helvetica;fontSize=10;fontColor=default;strokeColor=default;fillColor=default;strokeWidth=1;gradientColor=none;" vertex="1" parent="1">
          <mxGeometry x="191.4" y="312" width="10" height="10" as="geometry" />
        </mxCell>
        <mxCell id="7amWvDYA09Yku5p8_MDS-44" value="" style="rounded=1;arcSize=23;whiteSpace=wrap;html=1;align=center;fontFamily=Helvetica;fontSize=10;fontColor=default;strokeColor=default;fillColor=default;" vertex="1" parent="1">
          <mxGeometry x="230" y="302" width="530" height="18" as="geometry" />
        </mxCell>
        <mxCell id="7amWvDYA09Yku5p8_MDS-45" value="id sản phẩm" style="text;html=1;strokeColor=none;fillColor=none;align=center;verticalAlign=middle;whiteSpace=wrap;rounded=0;fontSize=11;" vertex="1" parent="1">
          <mxGeometry x="230" y="288" width="70" height="8" as="geometry" />
        </mxCell>
        <mxCell id="7amWvDYA09Yku5p8_MDS-47" value="Tên sản phẩm" style="text;html=1;strokeColor=none;fillColor=none;align=center;verticalAlign=middle;whiteSpace=wrap;rounded=0;fontSize=11;" vertex="1" parent="1">
          <mxGeometry x="226" y="326" width="74" height="8" as="geometry" />
        </mxCell>
        <mxCell id="7amWvDYA09Yku5p8_MDS-49" value="Trạng thái" style="text;html=1;strokeColor=none;fillColor=none;align=center;verticalAlign=middle;whiteSpace=wrap;rounded=0;fontSize=11;" vertex="1" parent="1">
          <mxGeometry x="226" y="369.5" width="54" height="8" as="geometry" />
        </mxCell>
        <mxCell id="7amWvDYA09Yku5p8_MDS-50" value="Thêm danh mục" style="rounded=1;arcSize=36;whiteSpace=wrap;html=1;align=center;fontFamily=Helvetica;fontSize=10;fontColor=default;strokeColor=default;fillColor=default;" vertex="1" parent="1">
          <mxGeometry x="655" y="610" width="105" height="20" as="geometry" />
        </mxCell>
        <mxCell id="7amWvDYA09Yku5p8_MDS-54" value="&amp;gt;" style="rounded=0;whiteSpace=wrap;html=1;fontFamily=Helvetica;fontSize=10;fontColor=default;strokeColor=default;fillColor=default;strokeWidth=1;gradientColor=none;" vertex="1" parent="1">
          <mxGeometry x="191.4" y="170" width="10" height="10" as="geometry" />
        </mxCell>
        <mxCell id="7amWvDYA09Yku5p8_MDS-66" value="" style="rounded=1;arcSize=23;whiteSpace=wrap;html=1;align=center;fontFamily=Helvetica;fontSize=10;fontColor=default;strokeColor=default;fillColor=default;" vertex="1" parent="1">
          <mxGeometry x="230" y="340" width="530" height="18" as="geometry" />
        </mxCell>
        <mxCell id="7amWvDYA09Yku5p8_MDS-67" value="" style="rounded=1;arcSize=23;whiteSpace=wrap;html=1;align=center;fontFamily=Helvetica;fontSize=10;fontColor=default;strokeColor=default;fillColor=default;" vertex="1" parent="1">
          <mxGeometry x="230" y="382" width="530" height="18" as="geometry" />
        </mxCell>
        <mxCell id="7amWvDYA09Yku5p8_MDS-68" value="Giá sản phẩm" style="text;html=1;strokeColor=none;fillColor=none;align=center;verticalAlign=middle;whiteSpace=wrap;rounded=0;fontSize=11;" vertex="1" parent="1">
          <mxGeometry x="226" y="410" width="80" height="8" as="geometry" />
        </mxCell>
        <mxCell id="7amWvDYA09Yku5p8_MDS-69" value="" style="rounded=1;arcSize=23;whiteSpace=wrap;html=1;align=center;fontFamily=Helvetica;fontSize=10;fontColor=default;strokeColor=default;fillColor=default;" vertex="1" parent="1">
          <mxGeometry x="230" y="422.5" width="530" height="18" as="geometry" />
        </mxCell>
        <mxCell id="7amWvDYA09Yku5p8_MDS-70" value="Số lượng tồn" style="text;html=1;strokeColor=none;fillColor=none;align=center;verticalAlign=middle;whiteSpace=wrap;rounded=0;fontSize=11;" vertex="1" parent="1">
          <mxGeometry x="226" y="450" width="80" height="8" as="geometry" />
        </mxCell>
        <mxCell id="7amWvDYA09Yku5p8_MDS-71" value="" style="rounded=1;arcSize=23;whiteSpace=wrap;html=1;align=center;fontFamily=Helvetica;fontSize=10;fontColor=default;strokeColor=default;fillColor=default;" vertex="1" parent="1">
          <mxGeometry x="230" y="462.5" width="530" height="18" as="geometry" />
        </mxCell>
        <mxCell id="7amWvDYA09Yku5p8_MDS-72" value="Size" style="text;html=1;strokeColor=none;fillColor=none;align=center;verticalAlign=middle;whiteSpace=wrap;rounded=0;fontSize=11;" vertex="1" parent="1">
          <mxGeometry x="226" y="489.5" width="34" height="8" as="geometry" />
        </mxCell>
        <mxCell id="7amWvDYA09Yku5p8_MDS-73" value="" style="rounded=1;arcSize=23;whiteSpace=wrap;html=1;align=center;fontFamily=Helvetica;fontSize=10;fontColor=default;strokeColor=default;fillColor=default;" vertex="1" parent="1">
          <mxGeometry x="230" y="502" width="530" height="18" as="geometry" />
        </mxCell>
        <mxCell id="7amWvDYA09Yku5p8_MDS-74" value="Màu" style="text;html=1;strokeColor=none;fillColor=none;align=center;verticalAlign=middle;whiteSpace=wrap;rounded=0;fontSize=11;" vertex="1" parent="1">
          <mxGeometry x="226" y="530" width="34" height="8" as="geometry" />
        </mxCell>
        <mxCell id="7amWvDYA09Yku5p8_MDS-75" value="" style="rounded=1;arcSize=23;whiteSpace=wrap;html=1;align=center;fontFamily=Helvetica;fontSize=10;fontColor=default;strokeColor=default;fillColor=default;" vertex="1" parent="1">
          <mxGeometry x="230" y="542.5" width="530" height="18" as="geometry" />
        </mxCell>
        <mxCell id="7amWvDYA09Yku5p8_MDS-76" value="Ảnh" style="text;html=1;strokeColor=none;fillColor=none;align=center;verticalAlign=middle;whiteSpace=wrap;rounded=0;fontSize=11;" vertex="1" parent="1">
          <mxGeometry x="226" y="569" width="34" height="8" as="geometry" />
        </mxCell>
        <mxCell id="7amWvDYA09Yku5p8_MDS-77" value="" style="rounded=1;arcSize=23;whiteSpace=wrap;html=1;align=center;fontFamily=Helvetica;fontSize=10;fontColor=default;strokeColor=default;fillColor=default;" vertex="1" parent="1">
          <mxGeometry x="230" y="581.5" width="490" height="18" as="geometry" />
        </mxCell>
        <mxCell id="7amWvDYA09Yku5p8_MDS-79" value="&lt;div style=&quot;text-align: justify; font-size: 15px;&quot;&gt;&lt;span style=&quot;font-size: 15px;&quot;&gt;...&lt;/span&gt;&lt;/div&gt;" style="rounded=0;whiteSpace=wrap;html=1;fontSize=15;spacingBottom=6;" vertex="1" parent="1">
          <mxGeometry x="730" y="583" width="30" height="15" as="geometry" />
        </mxCell>
        <mxCell id="7amWvDYA09Yku5p8_MDS-81" style="edgeStyle=orthogonalEdgeStyle;rounded=0;orthogonalLoop=1;jettySize=auto;html=1;exitX=0.5;exitY=1;exitDx=0;exitDy=0;fontSize=15;" edge="1" parent="1" source="7amWvDYA09Yku5p8_MDS-50" target="7amWvDYA09Yku5p8_MDS-50">
          <mxGeometry relative="1" as="geometry" />
        </mxCell>
      </root>
    </mxGraphModel>
  </diagram>
</mxfile>
